<?xml version="1.0" encoding="utf-8"?>
<!-- Generator: Adobe Illustrator 19.1.0, SVG Export Plug-In . SVG Version: 6.00 Build 0)  -->
<svg version="1.1" id="Layer_1" xmlns="http://www.w3.org/2000/svg" xmlns:xlink="http://www.w3.org/1999/xlink" x="0px" y="0px"
	 viewBox="0 0 576 576" style="enable-background:new 0 0 576 576;" xml:space="preserve">
<g id="Layer_1_1_">
	<g>
		<path d="M430.3,223.5c1.3-3,4.5-4.4,7.8-2.9c2.6,1.2,5,3.1,7.5,4.7c0.5,0.3,1,0.6,1.9,0.6c-0.9-1.1-1.7-2.3-2.6-3.4
			c0.2-0.2,0.4-0.4,0.5-0.6c2.5,2.1,5.1,4.3,7.4,6.2c-0.3,1.6-0.4,2.7-0.7,4.5c3.7-2.3,6.8-4,10.2-2.3c0,0.3,0.1,0.6,0.1,0.9
			c-2.2,0.7-4.5,1.2-6.5,2.2c-1.1,0.6-2.3,1.8-2.7,3c-0.7,2.3-0.8,4.7-1.2,7.1c-1.3,7.8-2.6,15.7-3.9,23.5c-1.3,8.3-2.3,16.7-3.8,25
			c-2.3,12.2-5,24.3-7.4,36.4c-0.1,0.7,0,1.4,0,2.1c0.6,0,1.3,0.1,1.8-0.1c10.9-5.9,21.9-11.9,29.5-22.1
			c10.7-14.4,14.9-30.4,10.7-48.1c-1.6-6.7-5.9-12.1-10.9-16.7c-1.4-1.3-3.7-1.7-5.1-2.3c1.2-2.4,2.2-4.6,3.5-7.2
			c1.1,0.3,2.7,0.7,4.5,1.2c0.1-4.4-4.3-2-5.6-3.9c5.2-2,9.2,0.6,9.2,5.7c0,1.6,0.5,3.3,1.4,4.6c9.2,13.5,10.1,28.3,6,43.4
			c-4.4,16.2-12.7,30.4-26,41c-5.4,4.4-11.6,7.8-17.7,11.3c-3,1.7-4.4,3.6-5.2,6.9c-2.5,11.1-5.3,22.1-8.2,33.1
			c-2.8,10.7-5.8,21.4-8.6,32.2c-1,3.9-1.5,8-2.3,12c-0.4,1.9,0.3,2.6,2.3,2.8c21.8,3.1,43.7,5.7,64.7,12.4
			c3.8,1.2,7.4,2.9,10.9,4.8c4,2.2,4.3,4.1,1.7,8.2c1.3-0.6,2.2-1,3.2-1.5c0,4.4,0.1,8.6-0.1,12.8c0,0.8-1.2,1.8-2.1,2.3
			c-4.7,2.7-9.7,4.3-15.1,4.4c-10.5,0.2-21.1,0.6-31.6-0.3c-9.5-0.8-19-2.7-28.3-5.2c-10-2.7-20-4.1-30.3-3.2
			c-5.2,0.4-10.4,0.3-15.5,0.3c-21.3-0.2-42.6-0.5-63.9-0.6c-26.9-0.2-53.9-0.2-80.8-0.2c-18.9,0-37.8,0.1-56.7,0.1
			c-5.5,0-10.9-0.3-16.4-0.4c-1.9,0-3.1-0.5-2.4-2.8c0.4-1.4,0-2.2-1.6-1.9c-2.1,0.4-2.9-0.8-3.1-2.6c-0.3-2.7-0.9-5.3-0.8-8
			c0.4-12-1.9-23.5-4.9-35c-4.1-15.7-8-31.6-12-47.4c-2-7.8-3.8-15.6-6-23.4c-0.4-1.6-1.4-3.2-2.6-4.4c-9.7-9.9-19-20.2-25.3-32.8
			c-4.4-8.8-6.5-18-6.2-27.9c0.1-4.5,1.1-9.3-1.7-13.5c-0.4-0.6-0.3-1.7-0.1-2.4c0.7-2.2,1.4-4.4,2.4-6.5c0.4-0.8,1.4-1.4,2.1-2.1
			c0.3,0.2,0.5,0.3,0.8,0.5c-0.5,1.7-1,3.4-1.5,5.1c-0.3,1.2-0.7,2.5-0.9,3.8c-0.1,0.6,0.3,1.2,0.5,1.8c0.6-0.3,1.5-0.5,1.8-1
			c0.5-1,0.5-2.1,0.8-3.2c0.6-2.3,1.2-4.6,1.8-7c0.1-0.2,0.1-0.6-0.1-0.8c-1.1-1.3-1.3-2.9,0.1-3.6c1.2-0.6,2.9-0.1,4.4-0.1
			c0.3,0.4,0.5,0.9,0.8,1.3c-0.7,0.3-1.6,0.4-2,0.8c-0.9,1-1.9,2.1-2.1,3.4c-1,4.6-1.5,9.2-2.6,13.7c-2.6,10.3-0.6,20.1,3.8,29.4
			c5.2,11,12.5,20.5,20.5,29.5c0.2,0.3,0.6,0.4,1.4,0.9c0-1.3,0.1-2.3,0-3.1c-2.2-13.2-4.5-26.4-6.6-39.6c-2.2-13.8-4-27.7-6.5-41.4
			c-0.5-2.8,0.4-5.1,0.1-7.7c-0.1-0.6,1.2-1.6,2-2c2.7-1.2,3-1.7,1.5-4.3c-0.5-0.8-1.3-1.5-1.9-2.2c3.5-1.2,5.8,1.8,5.8,8.4
			c2.8-0.9,5.4-1.9,8-2.6c6.8-2,13.7-3.9,20.5-5.7c2-0.5,2.8-1.3,2.7-3.3c-0.1-1.9-0.1-3.9-0.1-5.8c0.1-3.8,1.4-5,5.2-5.3
			c18.3-1.6,36.7-0.5,55.1-1.3c3.5-0.2,3.7-0.3,3.9-3.8c1-20.9,3.8-41.5,9.4-61.6c2.9-10.7,7.4-20.8,13.6-29.9
			c2.5-3.7,6.7-6.2,10.5-8.9c13.5-9.5,28.5-12.7,44.8-10.3c7.8,1.2,15.5,2.9,22.5,6.7c10.9,6,18.8,14.8,22.6,26.6
			c4,12.7,7.5,25.5,10.2,38.5c2.8,13.4,4.5,27,6.5,40.5c0.3,2.2,1.6,2.4,3.3,2.4c14.3,0,28.5,0.1,42.8,0.1c3.1,0,6.3-0.1,9.4,0.2
			c4.2,0.4,5.8,2.4,5.8,6.6c0,7.9,0,7.9,7.6,10.1c1.6,0.5,3.2,0.9,4.8,1.5c2.8,0.9,3,0.8,3.7-2.3c0.8,0.4,1.6,0.8,2.3,1.1
			c-2,2.4,0,3.1,1.7,3.9c3.5,1.7,7.6,1.6,11,3.7c0.6,0.3,1.4,0.1,2.7,0.2c-0.8-1.3-1.1-2-1.6-2.6c-2-2.1-3.9-4.4-6.2-6.2
			C435.4,220.4,432.8,222.6,430.3,223.5z M280.9,205.5c0,0.2,0,0.4,0,0.6c18.1,0,36.1,0,54.2,0c3.4,0,3.7-0.2,3.6-3.6
			c-0.4-12.9-0.5-25.7-1.2-38.6c-0.6-11.2-0.9-22.4-4.3-33.2c-3.9-12.3-10.6-22.9-22.1-29.1c-18.6-10-38.1-10.7-57.6-2.5
			c-9.1,3.8-16.3,10-20.6,19.2c-5,10.6-6.2,22-7.4,33.4c-0.9,8.8-1.2,17.7-1.6,26.6c-0.4,8.1-0.4,16.3-0.7,24.4
			c-0.1,1.7,0.3,2.8,2.4,2.8C244.1,205.5,262.5,205.5,280.9,205.5z M486.7,452.8c0-0.4,0-0.7,0.1-1.1c-0.7-0.3-1.4-0.7-2.1-1
			c-4.3-1.4-8.6-2.9-12.9-4.1c-18.7-5.1-38-7.3-57.1-10.1c-1.8-0.3-2.3,0.6-2.3,2.2c0.1,2.6,0.2,5.2-0.1,7.8c-0.2,2,0.7,2.7,2.3,3.1
			c6.2,1.2,12.5,2.5,18.7,3.6c12.9,2.4,25.9,2.5,39,1.6C477.1,454.5,481.9,453.5,486.7,452.8z M357.1,232.3c0.5-3.8-0.2-4.7-3.1-4.8
			c-5.7,0-11.4-0.1-17.1,0.1c-0.8,0-2,1.4-2.3,2.4c-0.5,1.6,0.7,2.2,2.3,2.2C343.6,232.3,350.3,232.3,357.1,232.3z M216.3,232
			C216.3,232,216.3,231.9,216.3,232c2.9-0.1,5.7-0.1,8.6-0.1c1.6,0,3.1,0.2,3-2.1c-0.1-2.1-1.4-2.5-3.2-2.5
			c-4.1,0.1-8.1,0.2-12.2,0.2c-1.8,0-3.8-0.4-5.5,0c-1,0.2-2,1.7-2.3,2.8c-0.4,1.8,1.2,1.7,2.4,1.7C210.2,232,213.2,232,216.3,232z
			 M282.1,230.9c0.2-0.5,0.3-1,0.5-1.5c-0.9-0.3-1.8-0.7-2.8-0.8c-0.2,0-0.5,0.9-0.8,1.4C280.1,230.3,281.1,230.6,282.1,230.9z"/>
		<path d="M102.1,227.1c0.6,2,2.4,4.8,1.7,5.9c-1.7,2.8,2.2,6.6-2.7,8.8c0-1.2-0.1-2.1,0-2.9c0.1-1.1,0.7-2.1,0.6-3.1
			c-0.1-2.9-0.5-5.8-0.7-8.8C101.4,227,101.8,227,102.1,227.1z"/>
		<path d="M456.2,235.4c1.4,0.7,2.8,1.4,4.2,2.2c0.4,0.2,0.4,1,0.7,1.6c-0.5,0.1-1.1,0.5-1.4,0.3c-1.4-1-2.8-2.1-4.1-3.2
			C455.7,236,455.9,235.7,456.2,235.4z"/>
		<path d="M101.1,222c1-1,1.8-2,2.9-2.8c0.3-0.2,1.2,0.4,1.8,0.7c-0.4,0.5-0.6,1.2-1.1,1.5c-1,0.5-2.2,0.7-3.2,1
			C101.3,222.3,101.2,222.2,101.1,222z"/>
	</g>
</g>
<g id="Layer_2">
</g>
</svg>
