<?xml version="1.0" encoding="utf-8"?>
<!-- Generator: Adobe Illustrator 19.1.0, SVG Export Plug-In . SVG Version: 6.00 Build 0)  -->
<svg version="1.1" id="Layer_1" xmlns="http://www.w3.org/2000/svg" xmlns:xlink="http://www.w3.org/1999/xlink" x="0px" y="0px"
	 viewBox="0 0 576 576" style="enable-background:new 0 0 576 576;" xml:space="preserve">
<g id="Layer_1_1_">
	<g>
		<path d="M387.7,308.2c1.3-0.2,2.4-0.3,3.4-0.4c2.1-0.2,3.1,0.9,3.5,2.9c0.4,2.3,1,4.5,1.4,6.7c0.1,0.8-0.2,1.7,0.2,2.3
			c0.6,1.1,1.6,2,2.9,3.5c0.2-1.3,0.3-1.8,0.4-2.4c1.1,0.3,2.1,0.5,3.1,0.7c0.1-0.3,0.1-0.7,0.2-1c-1.1-0.2-2.3-0.2-3.4-0.5
			c-0.6-0.2-1.2-0.7-1.8-1.1c0.5-0.4,1-1.1,1.6-1.2c1.9-0.4,4.6,1.2,5.3,3c0.2,0.5,0.1,1,0.4,1.4c3.2,4.5,2.1,9.2,0.5,14
			c1.9,0.8,2.7,1.8,0.9,3.7c-1.3,1.3,0.5,4.9,2.4,5.5c2.1,0.6,4.4,0.9,3.1,4.1c-0.2,0.4,0.6,1.2,1,1.9c0.9,1.7,1.9,3.4-0.1,5.2
			c-0.5,0.5-0.3,1.8-0.4,2.7c0.2,0.1,0.5,0.2,0.7,0.2c0.5-0.5,1.1-1,1.7-1.5c1.7,1.1,1.4,2.7,1.2,4.3c-0.6,4.5-1.3,9.1-1.7,13.6
			c-0.7,8.5-1,16.9-1.9,25.4c-0.8,7-3,13.6-7.9,18.9c-0.3,0.3-0.7,0.7-0.7,1c0.2,4.3,0.5,8.5,0.9,12.7c0.1,0.5,1.4,0.9,2.2,1.2
			c12.8,4.5,25.6,8.9,38.3,13.6c3.7,1.4,7,3.8,8.7,7.6c0.5,1.2,0.7,2.7,0.7,4.1c0,2.3-0.6,4.7-0.2,7c0.8,4.7-1.1,8.1-4.9,10.5
			c-5.8,3.6-12.2,5.6-19,6c-6.4,0.3-12.9,0.4-19.3,0.1c-11.3-0.6-21.8-3.7-30.7-11c-0.4-0.4-0.9-0.7-1.4-0.9
			c-0.2-0.1-0.4-0.1-0.7-0.1c0.6,2.3,0.1,2.9-2.2,2.9c-3.4,0.1-6.8-0.1-9.6-2.6c-0.6-0.5-1.7-0.5-2.5-0.5c-13.3-0.2-26.7-0.4-40-0.5
			c-26-0.1-52.1,0-78.1-0.1c-31.9-0.1-63.9-0.3-95.8-0.4c-1.3,0-2.6-0.2-3.9-0.3c-3.3-0.4-3.2-0.4-2.8-3.8c0.1-0.5-0.2-1.4-0.6-1.6
			c-6-3.8-6.8-9.8-7.3-16.1c-0.1-1.1-0.2-2.3-0.1-3.4c0.4-2.5-0.8-3.6-3.1-4.1c-4.3-0.9-8.2-2.6-11.4-5.9c-2.3-2.3-2.4-2.1-0.7-4
			c-2.3-5.1-5-9.9-6.4-15c-1.2-4.5-1.4-9.4-1.1-14.1c0.6-11.8,4.6-22.7,9.1-33.5c1.7-4.1,2.6-8.6,4.1-12.8c1.4-4.1,3-8.1,4.5-12.2
			c1-2.6,3.4-3.4,5.5-4.4c0.4-0.2,1.2,0.2,1.7,0.4c0.7,0.2,1.4,0.5,2.3,0.5c-2.1-1.2-1.9-3.2-2-5.1c-0.2-2.8-0.5-5.7-0.7-8.5
			c-0.2,0-0.4,0-0.6,0c-0.3,0.3-0.5,0.7-0.8,1c-0.4,0.5-0.8,1-1.2,1.5c-0.5-0.6-1.3-1.1-1.4-1.7c-0.4-4,0.4-7.8,3.6-10.5
			c0.6-0.5,1.8-0.8,2.6-0.7c5,1,8.5-1.8,8.3-6.8c-0.1-3.4,2-5,5.3-4c1.3,0.4,1.7,0,2-1.2c1.2-4.5,2.5-9,3.7-13.6
			c0.2-0.8-0.2-1.8-0.4-2.7c-0.4-1.7-1.1-3.5-1.3-5.2s0.6-2.4,2.6-2.6c1.5-0.1,3.5-1.4,4.1-2.7c2.1-4.4,5.1-7.9,9-10.6
			c6.3-4.4,13.5-6,21-6.6c4.5-0.4,9-0.4,13.6-0.6c4-0.2,4.5-0.8,4.7-4.8c0.5-11.5,0.6-23,1.6-34.4c1.1-12.8,4.2-25.1,9.9-36.8
			c4.3-8.9,9.1-17.3,16.6-23.9c8.7-7.7,18.9-12.5,30.5-13.5c16.4-1.5,30.8,3.4,42.6,15c6,5.9,9.9,13.3,13.2,21
			c3.4,7.9,6.2,16,7.3,24.5c1,8.2,2,16.5,2.3,24.8c0.4,8.6,0.1,17.1-0.1,25.7c0,2.4,0.8,3.3,3.1,3.4c5.3,0.2,10.7,0.5,15.9,1.1
			c13.6,1.8,22.8,9.2,27.7,22c2.4,6.3,4.1,12.7,4.9,19.4C387.1,305.2,387.4,306.7,387.7,308.2z M296.4,260.6c0,0.1,0,0.3,0,0.4
			c7.8,0,15.5,0,23.3,0c1.2,0,2.5,0,2.7-1.7c0.6-6.2,1.4-12.4,1.9-18.5c0.6-8.9,1.2-17.7,1.4-26.6c0.3-11.8,0.8-23.7-6-34.5
			c-4.6-7.3-9.6-14.3-16.8-19.2c-13.2-9.2-27.8-10.5-43-6.1c-10.3,3-18,9.6-24.5,17.8c-3.2,4-6.8,8.1-8.5,12.8
			c-2.2,6.1-3.8,12.9-3.9,19.3c-0.2,17.7,0.5,35.4,0.8,53.1c0,1.6,0.8,2.3,2.4,2.3c5.5,0.2,10.9,0.8,16.4,0.9
			c9.2,0.2,18.4,0.1,27.5,0.1C278.8,260.6,287.6,260.6,296.4,260.6z M148.3,327.6c-0.1,0-0.2,0-0.4,0c-1.5,3.1-3,6.3-4.5,9.4
			c-0.5,1.1-0.6,2.7-1.4,3.5c-1.5,1.4-1.4,2.6-0.6,4.3c2.2,4.4,0,11.9-4.1,14.4c0.2-0.8,0.3-1.4,0.5-2.5c-1.4,1.2-2.4,2.1-3.5,3.1
			c1,0.4,1.7,0.6,2.5,0.9c-1.1,2.3-2.1,4.4-3.2,6.4c-5.9,11.1-12.1,22.1-14.5,34.7c-1.5,7.6-1.7,14.9,0.7,22.2c1.4,4.5,4,7.9,9,8.8
			c1.1,0.2,2.2,0.4,3.3,0.8c2.3,0.8,2.9-0.1,3.1-2.3c1.4-18.1,2.7-36.3,4.6-54.3c0.9-8,3.3-15.8,5.1-23.6c0.4-1.5,1.1-2.9-0.7-4
			c-0.3-0.2-0.5-1-0.4-1.5c1-4.7,2.2-9.4,3.2-14.2C147.7,331.6,148,329.6,148.3,327.6z M447.6,463.5c-13.8-7.4-28.7-10.6-43.2-15.8
			c-0.7,8,0.6,16.3-8.5,20C404.3,474.2,438,471.5,447.6,463.5z M402.1,402.5c0.2,0,0.4,0,0.6,0c0.1-0.8,0.2-1.5,0.2-2.3
			c0-10.3,0.2-20.5,0-30.8c-0.1-3.5-0.8-6.9-2.8-10.1s-2.8-6.9-1.2-10.7c0.9-2.1,2.2-4.1-0.6-5.7c-0.2-0.1-0.3-0.6-0.4-0.9
			c-1.1-2.8-2.2-5.7-3.2-8.5c-0.4-0.9-0.7-1.9-1.1-2.8c0.4,5.8,1.3,11.4,2.3,17c0.3,1.8,1.4,3.5-0.5,5.1c-0.3,0.3-0.1,1.4,0.1,2
			c3.9,11.4,5.2,23.3,5.7,35.2C401.5,394.2,401.8,398.3,402.1,402.5z M401.7,358.3c1.9-0.5,4.1-0.8,6.1-1.6c3.7-1.6,3.7-1.9,2.1-5.6
			c-0.2-0.4-0.4-0.9-0.6-1.3c-1-1.8-2.2-2.4-4.1-1.1c-0.7,0.5-1.6,0.8-2.4,1c-1.7,0.4-2,1.4-1.8,2.9
			C401.1,354.3,401.4,356,401.7,358.3z M394.1,324.1c2.2,4.8,4.4,9.5,6.6,14.3c0.3,0,0.5-0.1,0.8-0.1c-2.5-4.8,1.8-9.8-0.2-14.1
			C398.6,324.1,396.5,324.1,394.1,324.1z M133.2,344.8c-0.5,1.2-0.9,2.1-1.1,3c-0.2,1-0.7,2.3-0.3,3c1.1,1.7,2.7,3.1,4.1,4.8
			c2.3-2.5,2.6-5,2.5-7.5c-0.1-3.5-4.3-2.3-5.5-5.1c-0.7,1-1.1,1.6-1.9,2.7C132.1,345.3,132.5,345.1,133.2,344.8z M147.6,321.3
			c-1.1-0.1-2-0.5-2.4-0.3c-1.3,1-2.1,0.6-3-0.6c-0.2-0.3-1.4-0.4-1.8-0.1c-2.2,1.8-2,7.6,0.4,9.6
			C142.9,327.3,145,324.6,147.6,321.3z M207.5,296.7c1.6,1.4,16.6,1.5,18.2,0C219.5,296.7,213.6,296.7,207.5,296.7z M319.3,297.6
			c0,0.1,0,0.3,0,0.4c5.7,0,11.5,0,17.2,0c0-0.1,0-0.3,0-0.4C330.8,297.6,325,297.6,319.3,297.6z M159.5,286.3
			c0.6-1.4,1.2-2.8,1.9-4.6C158.6,282.3,158.2,283.1,159.5,286.3z M149.4,319.5c0-1.7,0-2.9,0-4.5
			C147.6,316.6,147.5,317.9,149.4,319.5z"/>
	</g>
</g>
<g id="Layer_2">
</g>
</svg>
