<?xml version="1.0" encoding="utf-8"?>
<!-- Generator: Adobe Illustrator 19.1.0, SVG Export Plug-In . SVG Version: 6.00 Build 0)  -->
<svg version="1.1" id="Layer_1" xmlns="http://www.w3.org/2000/svg" xmlns:xlink="http://www.w3.org/1999/xlink" x="0px" y="0px"
	 viewBox="0 0 576 576" style="enable-background:new 0 0 576 576;" xml:space="preserve">
<g id="Layer_1_1_">
	<g>
		<path d="M139.5,310.8c3.9,0.1,4,3,5.2,5.2c0.3-5.9-0.2-11.6-2.6-17.2c0.5-0.4,1.1-1,1.6-1.3c-1.2-0.9-2.4-1.6-3.5-2.6
			c-7.4-7-10.8-15.8-12.3-25.7c-1-6.7-2.4-13.3-4.1-19.8c-1.7-6.7-1.9-13.4-0.2-20.1c1.5-6.2,3.6-12.3,5.4-18.5
			c0.3-1.1,0.6-2.6,0-3.5c-1.7-3-0.4-5.3,1.1-7.6c1-1.4,2.3-2.6,3.1-3.6c0.5,1.1,0.9,2.5,1.7,3.4c2.1,2.4,4.5,4.6,7.3,6.7
			c0-1.2,0-2.4,0-4.1c1.4,0.4,2.4,0.7,3.4,1c1.7-3.1-3.1-2.5-3-5.1c1,0.3,1.7,0.6,2.5,0.8c1.5-2.8,1.2-5.3-0.6-7.3
			c-0.3-0.3-0.6-0.8-0.5-1.1c1.3-4.4,1.4-9.5,6.5-12.6c0.1,2,0.2,3.7,0.4,5.4c0.1,0.7,0.7,1.2,1.1,1.8c0.6-0.5,1.6-1,1.7-1.6
			c0.4-1.9,0.5-3.8,0.8-5.8c0.5-3.5,3.5-2.2,5.5-2.6c0.6-0.1,1.9,1.6,2.1,2.6c0.4,1.6,1.1,2.2,2.7,2.2c3.2-0.1,6.6,0.5,8.6-3.1
			c0.2-0.4,1.6-0.7,2-0.4c2.9,2,5.6,4.2,8.5,6.4c0.7-0.6,1.4-1.2,2-1.8c0.3,0.1,0.5,0.2,0.8,0.4c-0.4,1.1-0.8,2.3-1.3,3.5
			c1.3,1.4,4.2,0.4,4.5-1.7c0.1-0.9,0-1.9,0-3.4c1.8,0.8,3.2,1.4,4.5,2.1c1.8,0.8,3.6,1.5,5.2,2.5c0.9,0.6,2,1.7,2.1,2.7
			c0.2,2,1.5,2.8,3,3.3c4.6,1.5,9.2,3,13.8,4.3c7.5,2,15.1,4.1,22.7,5.7c7.6,1.7,15.2,3.1,22.8,4.2c7.5,1.2,15,2.3,22.5,2.7
			c7.4,0.4,14.8,0,22.1-0.5c8.7-0.5,17.3-1.5,26-2.4c1.6-0.2,3.1-0.8,4.7-0.9c15.2-1,28.8-7.2,42.5-13.1c6.7-2.9,13.7-4.8,20.7-6.9
			c3.9-1.2,8-2,11.2-2.7c1.6,1.1,2.7,2.1,4,2.5c1.2,0.4,2.1-0.5,1.6-1.9c-0.7-1.8,0.3-2.2,1.7-2.3c1.2-0.1,2.5-0.1,3.7-0.1
			c1.8,0,2.7-0.7,2.3-2.6c-0.1-0.3-0.1-0.7-0.1-1c-0.3-4.1,1.7-5.4,5.8-3.6c-0.5,0.7-0.9,1.4-1.6,2.3c3.6,1,1.2,6.1,5.3,7
			c0.4-3.4,0.9-6.7,1.4-10.6c2.2,3.7,4,6.7,5.9,9.8c0.4-0.5,0.8-1,1.5-1.9c0.5,3.7,0.9,6.8,1.3,10c-2.6,0.9-3.6,2.7-3.1,5.1
			c1-0.2,2.1-0.4,3.2-0.6c0.1,0.3,0.2,0.6,0.4,0.8c-2.1,0.9-2.2,2.6-2.6,4.5c-0.7,3.6-2.2,7-3.4,10.5c-1.4,4.2-2.8,8.4-4.1,12.5
			c-0.1,0.5-0.1,1-0.1,1.5c0.2,0.2,0.4,0.3,0.7,0.5c0.7-0.8,1.6-1.5,2-2.4c2.1-5.5,4.2-11,6-16.5c0.7-2,1.4-3,3.7-3.1
			c2.1-0.1,4.3-0.8,7.1-1.4c0.4,1.9,0.8,4,1.3,6.3c2.1-0.8,2.5,0.8,3.2,2.6c8.3,21.7,9.8,43.9,6.2,66.7
			c-2.3,14.1-6.7,27.5-12.2,40.5c-5,11.9-10.1,23.8-15.1,35.7c-0.5,1.1-0.6,2.4-0.7,3.6c-0.8,8.8-1.2,17.6-2.4,26.3
			c-0.6,4.6,0.8,6.8,5.1,8.6c9.7,4,19.3,8.5,28.7,13.3c5.6,2.9,10.8,6.6,15.9,10.3c6.5,4.9,7.9,11.6,6.3,19.4
			c-0.7,3.2-0.7,6.7-0.5,10c0.3,5.2-2.1,8.7-6.3,11.4c-5.3,3.3-11.4,4.8-17.4,5.8c-7.7,1.3-15.4,1.4-23.1-0.7
			c-12-3.4-21.9-9.7-29-20.1c-1-1.5-2-3.1-3.2-4.7c0.4,2.6-0.8,4.1-3.1,4.7c-7.2,1.8-14.5,4.6-21.8,5c-32.7,1.7-65.4,4.5-98.2,4.4
			c-20.6,0-41-0.9-61.5-2.6c-6.9-0.6-13.9,0-20.8-0.4c-11.7-0.8-22.8-3.8-32.8-9.9c-12.6-7.6-20.8-18.3-23.5-32.9
			c-1.1-5.7-2.1-11.4-3.7-17.1c-1.2,4.8-2.3,9.6-3.5,14.4c-0.4,0-0.7-0.1-1.1-0.1c-0.7-2.7-1.4-5.3-2.1-8c-0.2-0.6,0-1.4-0.3-1.8
			c-4.7-5.2-3.4-11-1.5-16.8c1.6-5.1,1.2-10.3,0.3-15.4c-0.5-2.9-1.2-5.7-1.5-8.6c-0.5-4.2-0.2-8.4,1.4-12.5
			c0.7-1.9,1.2-3.9-0.2-5.8c-0.2-0.2-0.2-0.5-0.2-0.7c-0.3-5.4-0.8-10.8-0.9-16.2C137.9,313,139.1,311.7,139.5,310.8z M457.4,446.4
			c10.1-0.2,18.9-2.5,26.7-7.9c1.8-1.2,2.1-2.3,0.1-3.6c-7.7-5.1-15.1-10.7-23.1-15.2c-7.8-4.4-16.2-7.7-24.4-11.4
			c-3.6-1.6-3.4-1.5-5.1,2.2c-1.9,4.1-4,8.2-6.5,11.9c-2.8,4.2-3.1,4,0.1,8.1c0.2,0.3,0.4,0.6,0.6,0.8
			C434.3,441.5,445.4,445.7,457.4,446.4z M444.9,222c-0.3,0.6-0.6,0.8-0.6,1.1c-0.5,3.7-1.1,7.5-1.5,11.2c-0.1,0.9,0.2,2.3,0.8,2.6
			c2.1,1.3,1.7,3,1.2,4.9c-0.4,1.5-0.5,3.1-0.9,4.7c-0.2,0.8-0.6,1.9-1.3,2.1c-1.9,0.7-2.1,2.1-2.1,3.8c0.3,7.8,0.6,15.6,0.9,23.5
			c0,0.7,0.2,1.4,0.1,2.1c-0.1,0.5-0.5,1-0.7,1.5c-0.5-0.3-1.1-0.5-1.4-0.9c-0.5-0.6-0.9-1.3-1.3-1.9c-0.2,0.1-0.4,0.2-0.6,0.3
			c1.1,14.6,2.3,29.2,3.4,43.7C452,306.7,455,240.6,444.9,222z M144.8,217.5c-1.8,4.2-3.3,8.4-5.3,12.2c-4.2,7.8-7,16.1-8.7,24.7
			c-0.6,3.2-1.3,7.1-0.1,9.8c2.7,5.9,6.5,11.4,9.9,17c0.3,0.6,1.1,0.9,2.2,1.8c0.2-1.9,0.3-3.1,0.3-4.3c0-4-0.4-8.1-0.1-12.1
			c0.2-2.9,1.4-5.6,1.9-8.5c0.3-2,1.6-4.4-1.4-5.6c-0.3-0.1-0.4-0.8-0.4-1.2c-0.3-2.3-0.5-4.7-0.7-7.1c0-0.5,0.1-1.3,0.4-1.4
			c1.9-1,1.4-2.6,1.4-4.2c0.1-2.6,0-5.1,0.2-7.6c0.3-3.5,0.7-7,2.6-10.5c2.3,2.5,0.2,7.1,4.6,7.9c-0.5-3.4-0.8-6.6-1.5-9.8
			c-0.8-3.8-1.8-7.6-3-11.4c-0.3-1-1.3-1.8-2-2.8c-0.3,0.1-0.5,0.3-0.8,0.4c0,1.5,0.1,3.1,0,4.6c-0.1,1.3-0.1,3-0.9,3.9
			C141.8,215.4,141.3,216.8,144.8,217.5z M291.3,427.2c1.5,1.2,3,1.8,4.3,0c0.2-0.2-0.4-1.5-0.9-1.7
			C293,424.6,291.9,425.4,291.3,427.2z M194.6,191.2c1.3,1.1,2.2,1.9,3.2,2.7c0.3-0.8,0.9-1.7,0.7-2.3
			C197.9,190.3,196.7,189.8,194.6,191.2z M439.3,229.4c-2.6,1-2.9,2.6-1.2,3.8C438.5,231.8,438.9,230.6,439.3,229.4z M440.2,204.6
			c0.4,0.1,0.8,0.2,1.2,0.4c0.5-1.5,0.9-3,1.4-4.4c-0.4-0.1-0.8-0.2-1.1-0.4C441.1,201.7,440.7,203.1,440.2,204.6z"/>
		<path d="M426.2,153.7c-0.7,0.7-1.3,1.2-2.4,2.1c-2-2.6-4-5.1-5.9-7.6c-1.2-1.6-2.3-3.4-3.8-4.7C401,132.1,388,120.6,373,111.7
			S342.2,95.9,325.2,92c-13.6-3.1-27.4-3.9-41.2-2.8c-13.4,1.2-26.4,4.8-39,9.8c-24.1,9.4-45.1,23.7-64.6,40.3
			c-2.3,1.9-4.7,3.7-7.1,5.5c-3.4,2.5-6.5,5.1-7.3,9.5c-0.5,2.9-2.6,1.8-4.3,1.4c-0.4,0.9-0.7,1.6-1,2.4c-0.4,0.3-0.7,0.6-1.1,0.9
			c-0.3-0.8-0.4-1.8-1-2.4c-1.8-1.9-3.8-3.5-5.7-5.4c-1.2-1.2-2.1-2.5-0.7-4.1c0.8-0.8,1.6-1.7,2.6-2.2c3.6-1.7,5.1-4.8,6.4-8.3
			c1.2-3.3,2.6-6.5,4.1-9.7c0.4-0.9,1.2-1.7,2.1-2.3c14.2-8.9,28.1-18.1,42.6-26.3c14.3-8,29.3-14.6,45.3-18.6
			c15.1-3.7,30.3-6.7,45.9-5.6c6.7,0.5,13.4,1.6,20,3c8.4,1.8,16.8,3.7,25,6.4c19.6,6.5,37.1,17,53,30.2
			c7.2,5.9,14.6,11.6,22.5,16.6c3.3,2.1,5.8,4.7,8.4,7.3c1.6,1.6,3.5,2.9,5.4,4.2c2.3,1.6,2.3,2.8,0.5,5c-1.9,2.4-3.3,5.2-5,7.7
			c-0.6,0.9-1.4,1.6-2.2,2.5c-0.6-0.8-1.1-1.6-1.7-2.4C426.9,154.5,426.7,154.2,426.2,153.7z"/>
		<path d="M137.4,197.9c0.7-1.1,1-2,1.5-2.1c1.8-0.5,1.4-1.6,1.6-3.1c0.4-3.4,1.6-6.7,2.5-10.1c0.4,0,0.8,0.1,1.2,0.1
			c0,1.4,0.1,2.8,0,4.2c-0.1,2.1-0.5,4.3-0.6,6.4c-0.1,1.5-2.2,3.6-3.7,3.6C139.3,197,138.7,197.3,137.4,197.9z"/>
		<path d="M155.7,171.8c-1.8-2.3-4.8-3.1-4.6-6.3c0.1-0.7,0.3-1.4,0.5-2.1c0.4,0.5,0.8,1.1,1.2,1.6c0.6,0.8,1.2,1.6,2,2.2
			C156.5,168.4,156.8,169.7,155.7,171.8z"/>
		<path d="M436.1,164.1c-0.6,0.9-0.9,1.6-1.4,1.8c-0.3,0.1-1-0.5-1.5-0.9s-0.9-0.9-1.4-1.4c-0.6-0.7-1.1-1.3-1.7-2
			c1-0.2,2.2-0.9,2.9-0.5C434.2,161.8,435,163,436.1,164.1z"/>
		<path d="M155.1,161.9c1.3,2.8,3.9,3.1,6.1,1c-0.6,2.7-1.9,4-3.6,3.7C155.1,166.1,154.2,164.7,155.1,161.9z"/>
		<path d="M454.6,197.6c-2.4-0.7-4.6-1.3-7.1-2c0.5-2,2.1-2,3.3-1.3C452.2,195.1,453.3,196.5,454.6,197.6z"/>
		<path d="M146.8,176c1.1-0.7,2.2-1.4,4-2.6c-0.2,1.5-0.1,2.6-0.4,2.8c-0.9,0.5-2.1,0.6-3.2,0.8C147.1,176.6,147,176.3,146.8,176z"
			/>
	</g>
</g>
<g id="Layer_2">
</g>
</svg>
