<?xml version="1.0" encoding="utf-8"?>
<!-- Generator: Adobe Illustrator 19.1.0, SVG Export Plug-In . SVG Version: 6.00 Build 0)  -->
<svg version="1.1" id="Layer_1" xmlns="http://www.w3.org/2000/svg" xmlns:xlink="http://www.w3.org/1999/xlink" x="0px" y="0px"
	 viewBox="0 0 576 576" style="enable-background:new 0 0 576 576;" xml:space="preserve">
<g id="Layer_1_1_">
	<g>
		<path d="M160.7,419c0.8-1.6,2.1-3.1,1.8-4.4c-0.2-1.3-2-2.3-2.9-3.5c-6.7-9.5-11.4-20-13.2-31.6c-2-12.4-2.3-24.8-1-37.2
			c0.7-6.8,1.9-13.6,3-20.3c1.1-6.4,2-12.8,3.5-19.1c2.5-9.9,5.3-19.7,8.3-29.5c4.6-15.3,15.9-25.3,28.1-34.5
			c4.2-3.1,7.6-6.7,10.3-11.1c4.2-6.8,9.4-13.1,13.2-20.1c1.6-2.9,3.2-5.6,5.2-8.1c6.4-8,12.6-16.1,19.4-23.8
			c9.4-10.7,20.6-19,34.3-23.3c9.7-3,19.5-4.4,29.7-3.3c10,1.1,19.7,3.2,28.7,7.6c10,4.8,18,12.1,25.6,20
			c8.3,8.6,16.8,17.1,24.6,26.2c5.7,6.6,10.5,13.9,15.5,21c4.5,6.4,8.9,12.7,15.8,17.2c8.1,5.4,13.3,13.7,17.1,22.4
			c3.5,8.1,6.1,16.6,8.8,25.1c2.7,8.4,5.1,17,7.3,25.6c3.4,13.4,4.9,27.1,5,40.8c0.1,13.9-4.4,26.6-12.3,38
			c-2.2,3.2-3.9,6.7-6.1,9.8c-2.4,3.2-5,6.3-7.8,9.1c-1.3,1.3-1.5,2-0.1,3.3c0.9,0.9,1.4,2.1,2.1,3.2c-1.2,0.2-2.4,0.7-3.6,0.7
			c-33.4,0.5-66.9,1.2-100.3,1.3c-45.3,0.2-90.5-0.1-135.8-0.3c-7.7,0-15.4-0.5-23.1-0.8C161.5,419.3,161.2,419.1,160.7,419z
			 M297.8,275c1.6,0,3.1,0.1,4.7,0c9.3-0.8,18.7-1.3,27.4-5.1c14.3-6.2,25.8-15.9,34.3-29c4.5-7,6.4-15.1,7.6-23.3
			c0.3-2.4-0.3-4.3-1.9-6.4c-5.7-7.5-10.8-15.5-16.7-22.8c-5.9-7.2-12.1-14.2-18.9-20.5c-8.5-7.9-19.5-11-30.8-12.3
			c-13.8-1.6-27.2-0.5-39.5,6.3c-17,9.4-28.9,23.9-38.2,40.6c-1.5,2.6-2.5,5.6-4.4,7.9c-2.1,2.4-1.7,4.6-0.8,7.1
			c3.6,10.3,9.1,19.6,14.9,28.7c3.9,6.2,9.3,10.8,15.6,14.4c6.9,3.9,13.7,8.2,21,11.1C280.1,274.8,289,275.3,297.8,275z
			 M293.9,413.2v-0.1c-2.7-0.2-5.5-0.4-8.2-0.4c-0.7,0-1.4,0.9-2.1,1.4c0.7,0.5,1.4,1.5,2.1,1.6c5.6,0.2,11.2,0.3,16.7,0.3
			c0.8,0,1.5-0.8,2.3-1.2c-0.7-0.5-1.5-1.3-2.2-1.3C299.6,413.1,296.7,413.2,293.9,413.2z M406.2,305.5c0-0.4,0-0.8,0-1.2
			c-1.1-0.7-2.2-1.9-3.2-1.8c-1.1,0.1-2.1,1.5-3.1,2.3c0.9,1,1.7,2.8,2.7,2.8C403.8,307.6,405,306.2,406.2,305.5z M190.6,313.4
			c-0.4,0.1-0.8,0.2-1.1,0.3c-0.7,1.6-3.3,2.9-1.4,4.9c0.6,0.6,3.1-0.6,4.7-1C192,316.2,191.3,314.8,190.6,313.4z M379.1,354.7
			c1.2-1.6,2.3-2.6,2.5-3.8c0.1-0.5-1.8-2.2-2.4-2c-1.1,0.4-2.3,1.5-2.7,2.6C376.3,352.1,377.8,353.3,379.1,354.7z M202.3,290.7
			c-0.7-3-2.9-3.6-4.5-4c-1-0.2-2.3,1.3-3.5,2.1c0.1,0.4,0.2,0.7,0.3,1.1C196.9,290.1,199.3,290.3,202.3,290.7z M194.7,304.8
			c-0.1-2.4-2-3.8-4.7-3.6c-0.6,0-1.7,1-1.6,1.4c0.4,2.9,3.2,2.1,5,2.9C193.6,305.6,194.3,304.9,194.7,304.8z M371.3,346.1
			c-3.7-1.7-8.7-1.7-10.6,0C364.2,347.2,367.5,347.7,371.3,346.1z M197,346.6c-3.6-4.9-4.8-5.1-6.2-1.4
			C192.8,345.6,194.9,346.1,197,346.6z M219,296c2.2-0.8,4.4-1.7,7-2.7C222.5,291.2,222,291.4,219,296z M365.8,303
			c-0.5-0.3-1-0.6-1.5-0.9c-0.4,0.9-1.2,2-1,2.8c0.1,0.8,1.2,1.9,2,2.1c0.5,0.1,2-1,2-1.5C367.3,304.6,366.4,303.8,365.8,303z
			 M357.2,316.7c1-1.1,2-1.8,2.2-2.6c0.1-0.4-1.3-1.8-1.8-1.6c-0.8,0.2-1.7,1.1-2.1,1.9C355.4,314.7,356.4,315.6,357.2,316.7z
			 M357.5,357.3c1-1.4,1.9-2.1,2-2.9c0.1-0.5-1.2-1.7-1.8-1.6c-0.8,0.1-2.1,0.9-2.2,1.6C355.5,355.1,356.6,356,357.5,357.3z
			 M329,315.1c0.1-0.4,0.2-0.7,0.2-1.1c-1.4-0.3-2.8-0.5-4.6-0.9C325.7,316.5,327.2,316.1,329,315.1z M296.5,405
			c0.1-0.6,0.2-1.2,0.3-1.8c-1.2-0.1-2.3-0.3-3.5-0.3c-0.2,0-0.3,1-0.5,1.5C294.1,404.6,295.3,404.8,296.5,405z M390.9,280
			c1.4-0.6,2.7-1.1,4.6-1.9C391.5,276.5,390.9,276.8,390.9,280z M340.1,341.5c-0.1-0.4-0.3-0.7-0.4-1.1c-1.5,0.5-3,1-4.5,1.5
			c0.2,0.4,0.3,0.9,0.5,1.3C337.2,342.7,338.6,342.1,340.1,341.5z M389.3,360.6c0.4-0.1,0.8-0.1,1.2-0.2c-0.2-1.2-0.4-2.4-0.5-3.6
			c-0.5,0.1-1.4,0.3-1.4,0.3C388.8,358.2,389,359.4,389.3,360.6z M243.1,306.8c-1.7-1.8-3.4-2-5.1,0
			C239.7,306.8,241.4,306.8,243.1,306.8z"/>
	</g>
	<rect x="359.5" y="290.7" width="11.9" height="22.7"/>
</g>
<g id="Layer_2">
</g>
</svg>
